<svg width="198" height="198" viewBox="0 0 198 198" fill="none" xmlns="http://www.w3.org/2000/svg">
<rect width="198" height="198" fill="white"/>
<path fill-rule="evenodd" clip-rule="evenodd" d="M32 84.0101V70H103.436L115.575 80.8565L127.247 70H152.927L166 82.1593V96.4898H143.122V102.135H152.927L166 114.082V128.191H139.854L121.178 111.255L115.108 116.9H103.436V128.625H88.0279L75.4216 116.466H74.0209V128.625H58.1463L45.5401 116.466V96.4898L32 84.0101Z" fill="black" stroke="black"/>
<rect x="117.811" y="83.2278" width="11.2319" height="11.2319" fill="white" stroke="black" stroke-width="0.4"/>
<rect x="117.811" y="95.325" width="11.2319" height="11.2319" fill="white" stroke="black" stroke-width="0.4"/>
<rect x="140.21" y="72.0611" width="11.2319" height="11.2319" transform="rotate(90 140.21 72.0611)" fill="white" stroke="black" stroke-width="0.4"/>
<rect x="152.307" y="72.0611" width="11.2319" height="11.2319" transform="rotate(90 152.307 72.0611)" fill="white" stroke="black" stroke-width="0.4"/>
<rect x="140.21" y="106.492" width="11.2319" height="11.2319" transform="rotate(90 140.21 106.492)" fill="white" stroke="black" stroke-width="0.4"/>
<rect x="152.307" y="106.492" width="11.2319" height="11.2319" transform="rotate(90 152.307 106.492)" fill="white" stroke="black" stroke-width="0.4"/>
<rect x="77.425" y="84.1583" width="11.2319" height="10.3014" fill="white" stroke="black" stroke-width="0.4"/>
<rect x="77.425" y="95.325" width="11.2319" height="10.3014" fill="white" stroke="black" stroke-width="0.4"/>
<rect x="77.425" y="106.492" width="11.2319" height="10.3014" fill="white" stroke="black" stroke-width="0.4"/>
<rect x="88.6569" y="72.0611" width="11.2319" height="11.2319" transform="rotate(90 88.6569 72.0611)" fill="white" stroke="black" stroke-width="0.4"/>
<rect x="100.754" y="72.0611" width="11.2319" height="11.2319" transform="rotate(90 100.754 72.0611)" fill="white" stroke="black" stroke-width="0.4"/>
<rect x="111.562" y="83.9583" width="10.7014" height="10.7014" transform="rotate(90 111.562 83.9583)" fill="white"/>
<rect x="100.754" y="95.325" width="10.3014" height="11.2319" transform="rotate(90 100.754 95.325)" fill="white" stroke="black" stroke-width="0.4"/>
<rect x="35.55" y="72.0611" width="11.2319" height="11.2319" fill="white" stroke="black" stroke-width="0.4"/>
<rect x="47.6472" y="72.0611" width="11.2319" height="11.2319" fill="white" stroke="black" stroke-width="0.4"/>
<rect x="47.6472" y="84.1583" width="11.2319" height="10.3014" fill="white" stroke="black" stroke-width="0.4"/>
<rect x="47.6472" y="95.325" width="11.2319" height="10.3014" fill="white" stroke="black" stroke-width="0.4"/>
<rect x="47.6472" y="106.492" width="11.2319" height="10.3014" fill="white" stroke="black" stroke-width="0.4"/>
<rect x="59.7444" y="72.0611" width="11.2319" height="11.2319" fill="white" stroke="black" stroke-width="0.4"/>
</svg>
